<?xml version="1.0" encoding="UTF-8" standalone="no"?>
<!-- Created with Inkscape (http://www.inkscape.org/) -->

<svg
   xmlns:dc="http://purl.org/dc/elements/1.1/"
   xmlns:cc="http://creativecommons.org/ns#"
   xmlns:rdf="http://www.w3.org/1999/02/22-rdf-syntax-ns#"
   xmlns:svg="http://www.w3.org/2000/svg"
   xmlns="http://www.w3.org/2000/svg"
   xmlns:sodipodi="http://sodipodi.sourceforge.net/DTD/sodipodi-0.dtd"
   xmlns:inkscape="http://www.inkscape.org/namespaces/inkscape"
   width="256"
   height="128"
   viewBox="0 0 67.733331 33.866666"
   version="1.1"
   id="svg1636"
   inkscape:version="0.92.3 (2405546, 2018-03-11)"
   sodipodi:docname="health_station_v2.svg">
  <defs
     id="defs1630" />
  <sodipodi:namedview
     id="base"
     pagecolor="#ffffff"
     bordercolor="#666666"
     borderopacity="1.0"
     inkscape:pageopacity="0.0"
     inkscape:pageshadow="2"
     inkscape:zoom="2.2550676"
     inkscape:cx="483.16682"
     inkscape:cy="-114.40893"
     inkscape:document-units="px"
     inkscape:current-layer="layer5"
     showgrid="false"
     units="px"
     inkscape:window-width="1920"
     inkscape:window-height="1057"
     inkscape:window-x="-8"
     inkscape:window-y="-8"
     inkscape:window-maximized="1"
     inkscape:snap-global="false" />
  <metadata
     id="metadata1633">
    <rdf:RDF>
      <cc:Work
         rdf:about="">
        <dc:format>image/svg+xml</dc:format>
        <dc:type
           rdf:resource="http://purl.org/dc/dcmitype/StillImage" />
        <dc:title />
      </cc:Work>
    </rdf:RDF>
  </metadata>
  <g
     inkscape:groupmode="layer"
     id="layer5"
     inkscape:label="Charge station">
    <rect
       ry="6.0799022"
       rx="5.3286438"
       y="51.511944"
       x="143.41818"
       height="33.071503"
       width="33.071503"
       id="rect1477-7"
       style="display:inline;opacity:1;fill:#cccccc;fill-opacity:1;fill-rule:nonzero;stroke:#000000;stroke-width:0.79516482;stroke-miterlimit:4;stroke-dasharray:none;stroke-opacity:0.99215686"
       inkscape:export-xdpi="96"
       inkscape:export-ydpi="96" />
    <rect
       inkscape:export-ydpi="96"
       inkscape:export-xdpi="96"
       style="display:inline;opacity:1;fill:#999999;fill-opacity:1;fill-rule:nonzero;stroke:#000000;stroke-width:0.67935175;stroke-miterlimit:4;stroke-dasharray:none;stroke-opacity:0.99215686"
       id="rect1479-9"
       width="29.801081"
       height="26.788645"
       x="145.05341"
       y="54.653362"
       rx="4.8016977"
       ry="4.9248543" />
    <rect
       inkscape:export-ydpi="96"
       inkscape:export-xdpi="96"
       style="display:inline;opacity:1;fill:#003380;fill-opacity:1;fill-rule:nonzero;stroke:#000000;stroke-width:0.79516482;stroke-miterlimit:4;stroke-dasharray:none;stroke-opacity:0.99215686"
       id="rect1481-1"
       width="33.071503"
       height="33.071503"
       x="143.41818"
       y="51.511944"
       rx="5.3286438"
       ry="6.0799022" />
    <rect
       ry="4.9248543"
       rx="4.8016977"
       y="54.653362"
       x="145.05341"
       height="26.788645"
       width="29.801081"
       id="rect1483-6"
       style="display:inline;opacity:1;fill:#999999;fill-opacity:1;fill-rule:nonzero;stroke:#000000;stroke-width:0.67935175;stroke-miterlimit:4;stroke-dasharray:none;stroke-opacity:0.99215686"
       inkscape:export-xdpi="96"
       inkscape:export-ydpi="96" />
    <rect
       inkscape:export-ydpi="96"
       inkscape:export-xdpi="96"
       y="51.70998"
       x="147.86313"
       height="32.736938"
       width="23.937815"
       id="rect1485-3"
       style="display:inline;fill:#0000ff;fill-opacity:1;fill-rule:nonzero;stroke:#000000;stroke-width:0.7294302;stroke-miterlimit:4;stroke-dasharray:none;stroke-opacity:0.99215686" />
    <path
       style="display:inline;fill:#ffffff;stroke:#000000;stroke-width:1.32999599px;stroke-linecap:butt;stroke-linejoin:miter;stroke-opacity:1"
       d="m 158.15589,55.066774 9.8307,-0.192214 -5.28216,6.823588 6.30926,0.0961 -7.77654,7.880762 6.60273,-4e-6 -16.87361,9.034047 5.86908,-8.169082 -5.28218,0.192215 5.42889,-5.766411 -6.60271,-0.192214 z"
       id="path1554"
       inkscape:connector-curvature="0"
       sodipodi:nodetypes="cccccccccccc"
       inkscape:export-xdpi="96"
       inkscape:export-ydpi="96" />
    <path
       inkscape:export-ydpi="96"
       inkscape:export-xdpi="96"
       inkscape:connector-curvature="0"
       id="path1487-5"
       d="m 165.58841,81.690964 c -0.90997,0 -1.64199,0.88341 -1.64199,1.98048 v 0.18379 c 0,0.0915 0.0126,0.17875 0.0225,0.26692 h 7.47164 c 0.01,-0.0882 0.0225,-0.1754 0.0225,-0.26692 v -0.18379 c 0,-1.09707 -0.73273,-1.98048 -1.64269,-1.98048 z"
       style="display:inline;opacity:1;fill:#999999;fill-opacity:1;fill-rule:nonzero;stroke:#000000;stroke-width:0.19872206;stroke-miterlimit:4;stroke-dasharray:none;stroke-opacity:0.99215686" />
    <path
       inkscape:export-ydpi="96"
       inkscape:export-xdpi="96"
       inkscape:connector-curvature="0"
       id="path1489-9"
       d="m 165.86039,82.462694 c -0.79303,0 -1.43097,0.55625 -1.43097,1.24704 v 0.11572 c 0,0.0576 0.011,0.11257 0.0197,0.16808 h 6.51142 c 0.009,-0.0555 0.0196,-0.11044 0.0196,-0.16808 v -0.11572 c 0,-0.69079 -0.63857,-1.24704 -1.43159,-1.24704 z"
       style="display:inline;opacity:1;fill:#666666;fill-opacity:1;fill-rule:nonzero;stroke:none;stroke-width:0.90689361;stroke-miterlimit:4;stroke-dasharray:none;stroke-opacity:0.99215686" />
    <path
       inkscape:export-ydpi="96"
       inkscape:export-xdpi="96"
       style="display:inline;opacity:1;fill:#999999;fill-opacity:1;fill-rule:nonzero;stroke:#000000;stroke-width:0.19872206;stroke-miterlimit:4;stroke-dasharray:none;stroke-opacity:0.99215686"
       d="m 149.94976,81.690964 c -0.90997,0 -1.64199,0.88341 -1.64199,1.98048 v 0.18379 c 0,0.0915 0.0126,0.17875 0.0225,0.26692 h 7.47164 c 0.01,-0.0882 0.0225,-0.1754 0.0225,-0.26692 v -0.18379 c 0,-1.09707 -0.73273,-1.98048 -1.64269,-1.98048 z"
       id="path1491-2"
       inkscape:connector-curvature="0" />
    <path
       inkscape:export-ydpi="96"
       inkscape:export-xdpi="96"
       style="display:inline;opacity:1;fill:#666666;fill-opacity:1;fill-rule:nonzero;stroke:none;stroke-width:0.90689361;stroke-miterlimit:4;stroke-dasharray:none;stroke-opacity:0.99215686"
       d="m 150.22174,82.462694 c -0.79303,0 -1.43097,0.55625 -1.43097,1.24704 v 0.11572 c 0,0.0576 0.011,0.11257 0.0197,0.16808 h 6.51142 c 0.009,-0.0555 0.0196,-0.11044 0.0196,-0.16808 v -0.11572 c 0,-0.69079 -0.63857,-1.24704 -1.43159,-1.24704 z"
       id="path1493-1"
       inkscape:connector-curvature="0" />
  </g>
  <g
     inkscape:label="Base"
     inkscape:groupmode="layer"
     id="layer1"
     transform="translate(0,-263.13334)"
     style="display:inline">
    <rect
       ry="6.0799031"
       rx="5.3286448"
       y="203.92812"
       x="-74.692551"
       height="33.071503"
       width="33.071503"
       id="rect2210"
       style="opacity:1;fill:#cccccc;fill-opacity:1;fill-rule:nonzero;stroke:#000000;stroke-width:0.79516488;stroke-miterlimit:4;stroke-dasharray:none;stroke-opacity:0.99215686"
       inkscape:export-xdpi="96"
       inkscape:export-ydpi="96" />
    <rect
       style="opacity:1;fill:#cccccc;fill-opacity:1;fill-rule:nonzero;stroke:#000000;stroke-width:0.79516488;stroke-miterlimit:4;stroke-dasharray:none;stroke-opacity:0.99215686"
       id="rect2221"
       width="33.071503"
       height="33.071503"
       x="-40.825886"
       y="203.92812"
       rx="5.3286448"
       ry="6.0799031"
       inkscape:export-xdpi="96"
       inkscape:export-ydpi="96" />
    <path
       id="path2223"
       style="fill:#e6e6e6;fill-opacity:1;stroke:#000000;stroke-width:0.79374999;stroke-linecap:butt;stroke-linejoin:miter;stroke-miterlimit:4;stroke-dasharray:none;stroke-opacity:1"
       d="m 84.671289,319.90631 v 33.86667 m -43.92083,-33.86667 v 33.86667 m -5.935218,-33.4561 h 54.983818 c 3.30795,0 5.97103,3.26994 5.97103,7.33171 v 18.3958 c 0,4.06177 -2.66308,7.33171 -5.97103,7.33171 H 34.815241 c -3.307952,0 -5.971032,-3.26994 -5.971032,-7.33171 v -18.3958 c 0,-4.06177 2.66308,-7.33171 5.971032,-7.33171 z"
       inkscape:connector-curvature="0" />
    <rect
       style="opacity:1;fill:#e6e6e6;fill-opacity:1;fill-rule:nonzero;stroke:#000000;stroke-width:0.78458357;stroke-miterlimit:4;stroke-dasharray:none;stroke-opacity:0.99215686"
       id="rect2225"
       width="43.93"
       height="33.082081"
       x="-62.791595"
       y="203.92284"
       rx="0"
       ry="0"
       inkscape:export-xdpi="96"
       inkscape:export-ydpi="96" />
    <rect
       ry="6.1299863"
       rx="7.3473907"
       y="263.69464"
       x="35.863884"
       height="33.343933"
       width="45.600574"
       id="rect2210-6"
       style="opacity:1;fill:#cccccc;fill-opacity:1;fill-rule:nonzero;stroke:#000000;stroke-width:0.93755513;stroke-miterlimit:4;stroke-dasharray:none;stroke-opacity:0.99215686"
       inkscape:export-xdpi="96"
       inkscape:export-ydpi="96" />
    <rect
       inkscape:export-ydpi="96"
       inkscape:export-xdpi="96"
       style="opacity:1;fill:#999999;fill-opacity:1;fill-rule:nonzero;stroke:#000000;stroke-width:0.80100328;stroke-miterlimit:4;stroke-dasharray:none;stroke-opacity:0.99215686"
       id="rect1953"
       width="41.09116"
       height="27.009319"
       x="38.118591"
       y="266.86194"
       rx="6.6208115"
       ry="4.9654236" />
    <rect
       inkscape:export-ydpi="96"
       inkscape:export-xdpi="96"
       style="opacity:1;fill:#cccccc;fill-opacity:1;fill-rule:nonzero;stroke:#000000;stroke-width:0.79516482;stroke-miterlimit:4;stroke-dasharray:none;stroke-opacity:0.99215686"
       id="rect1955"
       width="33.071503"
       height="33.071503"
       x="0.39758241"
       y="263.53091"
       rx="5.3286438"
       ry="6.0799022" />
    <rect
       ry="4.9248543"
       rx="4.8016977"
       y="266.67233"
       x="2.0328059"
       height="26.788643"
       width="29.801081"
       id="rect1957"
       style="opacity:1;fill:#999999;fill-opacity:1;fill-rule:nonzero;stroke:#000000;stroke-width:0.67935169;stroke-miterlimit:4;stroke-dasharray:none;stroke-opacity:0.99215686"
       inkscape:export-xdpi="96"
       inkscape:export-ydpi="96" />
    <rect
       ry="6.0799022"
       rx="5.3286438"
       y="210.96782"
       x="0.39758241"
       height="33.071503"
       width="33.071503"
       id="rect2024"
       style="opacity:1;fill:#cccccc;fill-opacity:1;fill-rule:nonzero;stroke:#000000;stroke-width:0.79516482;stroke-miterlimit:4;stroke-dasharray:none;stroke-opacity:0.99215686"
       inkscape:export-xdpi="96"
       inkscape:export-ydpi="96" />
    <rect
       inkscape:export-ydpi="96"
       inkscape:export-xdpi="96"
       style="opacity:1;fill:#999999;fill-opacity:1;fill-rule:nonzero;stroke:#000000;stroke-width:0.67935169;stroke-miterlimit:4;stroke-dasharray:none;stroke-opacity:0.99215686"
       id="rect2026"
       width="29.801081"
       height="26.788643"
       x="2.0328059"
       y="214.10924"
       rx="4.8016977"
       ry="4.9248543" />
    <rect
       inkscape:export-ydpi="96"
       inkscape:export-xdpi="96"
       style="opacity:1;fill:#cccccc;fill-opacity:1;fill-rule:nonzero;stroke:#000000;stroke-width:0.79516482;stroke-miterlimit:4;stroke-dasharray:none;stroke-opacity:0.99215686"
       id="rect2075"
       width="33.071503"
       height="33.071503"
       x="0.39758241"
       y="210.96782"
       rx="5.3286438"
       ry="6.0799022" />
    <rect
       ry="4.9248543"
       rx="4.8016977"
       y="214.10924"
       x="2.0328059"
       height="26.788643"
       width="29.801081"
       id="rect2077"
       style="opacity:1;fill:#999999;fill-opacity:1;fill-rule:nonzero;stroke:#000000;stroke-width:0.67935169;stroke-miterlimit:4;stroke-dasharray:none;stroke-opacity:0.99215686"
       inkscape:export-xdpi="96"
       inkscape:export-ydpi="96" />
    <rect
       ry="6.0799022"
       rx="5.3286438"
       y="210.96782"
       x="48.032887"
       height="33.071503"
       width="33.071503"
       id="rect2079"
       style="opacity:1;fill:#cccccc;fill-opacity:1;fill-rule:nonzero;stroke:#000000;stroke-width:0.79516482;stroke-miterlimit:4;stroke-dasharray:none;stroke-opacity:0.99215686"
       inkscape:export-xdpi="96"
       inkscape:export-ydpi="96" />
    <rect
       inkscape:export-ydpi="96"
       inkscape:export-xdpi="96"
       style="opacity:1;fill:#999999;fill-opacity:1;fill-rule:nonzero;stroke:#000000;stroke-width:0.67935169;stroke-miterlimit:4;stroke-dasharray:none;stroke-opacity:0.99215686"
       id="rect2081"
       width="29.801081"
       height="26.788643"
       x="49.66811"
       y="214.10924"
       rx="4.8016977"
       ry="4.9248543" />
    <rect
       inkscape:export-ydpi="96"
       inkscape:export-xdpi="96"
       style="opacity:1;fill:#cccccc;fill-opacity:1;fill-rule:nonzero;stroke:#000000;stroke-width:0.79516482;stroke-miterlimit:4;stroke-dasharray:none;stroke-opacity:0.99215686"
       id="rect2089"
       width="33.071503"
       height="33.071503"
       x="0.39758241"
       y="169.32007"
       rx="5.3286438"
       ry="6.0799022" />
    <rect
       ry="4.9248543"
       rx="4.8016977"
       y="172.46149"
       x="2.0328059"
       height="26.788643"
       width="29.801081"
       id="rect2091"
       style="opacity:1;fill:#999999;fill-opacity:1;fill-rule:nonzero;stroke:#000000;stroke-width:0.67935169;stroke-miterlimit:4;stroke-dasharray:none;stroke-opacity:0.99215686"
       inkscape:export-xdpi="96"
       inkscape:export-ydpi="96" />
    <rect
       ry="6.0799022"
       rx="5.3286438"
       y="169.32007"
       x="0.39758241"
       height="33.071503"
       width="33.071503"
       id="rect2093"
       style="opacity:1;fill:#aa0000;fill-opacity:1;fill-rule:nonzero;stroke:#000000;stroke-width:0.79516482;stroke-miterlimit:4;stroke-dasharray:none;stroke-opacity:0.99215686"
       inkscape:export-xdpi="96"
       inkscape:export-ydpi="96" />
    <rect
       inkscape:export-ydpi="96"
       inkscape:export-xdpi="96"
       style="opacity:1;fill:#999999;fill-opacity:1;fill-rule:nonzero;stroke:#000000;stroke-width:0.67935169;stroke-miterlimit:4;stroke-dasharray:none;stroke-opacity:0.99215686"
       id="rect2095"
       width="29.801081"
       height="26.788643"
       x="2.0328059"
       y="172.46149"
       rx="4.8016977"
       ry="4.9248543" />
    <rect
       ry="6.0799022"
       rx="5.3286438"
       y="169.32007"
       x="151.39145"
       height="33.071503"
       width="33.071503"
       id="rect1477"
       style="opacity:1;fill:#cccccc;fill-opacity:1;fill-rule:nonzero;stroke:#000000;stroke-width:0.79516482;stroke-miterlimit:4;stroke-dasharray:none;stroke-opacity:0.99215686"
       inkscape:export-xdpi="96"
       inkscape:export-ydpi="96" />
    <rect
       inkscape:export-ydpi="96"
       inkscape:export-xdpi="96"
       style="opacity:1;fill:#999999;fill-opacity:1;fill-rule:nonzero;stroke:#000000;stroke-width:0.67935169;stroke-miterlimit:4;stroke-dasharray:none;stroke-opacity:0.99215686"
       id="rect1479"
       width="29.801081"
       height="26.788643"
       x="153.02667"
       y="172.46149"
       rx="4.8016977"
       ry="4.9248543" />
    <rect
       inkscape:export-ydpi="96"
       inkscape:export-xdpi="96"
       style="opacity:1;fill:#aa0000;fill-opacity:1;fill-rule:nonzero;stroke:#000000;stroke-width:0.79516482;stroke-miterlimit:4;stroke-dasharray:none;stroke-opacity:0.99215686"
       id="rect1481"
       width="33.071503"
       height="33.071503"
       x="151.39145"
       y="169.32007"
       rx="5.3286438"
       ry="6.0799022" />
    <rect
       ry="4.9248543"
       rx="4.8016977"
       y="172.46149"
       x="153.02667"
       height="26.788643"
       width="29.801081"
       id="rect1483"
       style="opacity:1;fill:#999999;fill-opacity:1;fill-rule:nonzero;stroke:#000000;stroke-width:0.67935169;stroke-miterlimit:4;stroke-dasharray:none;stroke-opacity:0.99215686"
       inkscape:export-xdpi="96"
       inkscape:export-ydpi="96" />
  </g>
  <g
     inkscape:groupmode="layer"
     id="layer4"
     inkscape:label="Crate Hatches"
     style="display:inline">
    <rect
       style="opacity:1;fill:#b3b3b3;fill-opacity:1;fill-rule:nonzero;stroke:#000000;stroke-width:0.51036638;stroke-miterlimit:4;stroke-dasharray:none;stroke-opacity:0.99215686"
       id="rect2277"
       width="12.598467"
       height="3.998316"
       x="10.722231"
       y="41.713207"
       ry="1.1693188" />
    <rect
       style="opacity:1;fill:#4d4d4d;fill-opacity:1;fill-rule:nonzero;stroke:none;stroke-width:0.79374999;stroke-miterlimit:4;stroke-dasharray:none;stroke-opacity:0.99215686"
       id="rect2279"
       width="2.447428"
       height="5.3511562"
       x="12.071213"
       y="43.034149"
       ry="1.1693181" />
    <rect
       ry="1.1693181"
       y="43.034149"
       x="12.071213"
       height="5.3511562"
       width="2.447428"
       id="rect2281"
       style="opacity:1;fill:#4d4d4d;fill-opacity:1;fill-rule:nonzero;stroke:none;stroke-width:0.79374999;stroke-miterlimit:4;stroke-dasharray:none;stroke-opacity:0.99215686" />
    <rect
       style="opacity:1;fill:#666666;fill-opacity:1;fill-rule:nonzero;stroke:#000000;stroke-width:0.26458332;stroke-miterlimit:4;stroke-dasharray:none;stroke-opacity:0.99215686"
       id="rect1985"
       width="2.9332085"
       height="7.3916855"
       x="-70.045013"
       y="7.3504601"
       inkscape:export-xdpi="96"
       inkscape:export-ydpi="96" />
    <path
       style="opacity:1;fill:#b3b3b3;fill-opacity:1;fill-rule:nonzero;stroke:#000000;stroke-width:0.32509321;stroke-miterlimit:4;stroke-dasharray:none;stroke-opacity:0.99215686"
       d="m -90.672864,-9.1956044 c -1.924894,0 -3.473187,1.117626 -3.473187,2.5055892 v 0.2326206 c 0,0.1157998 0.02608,0.2259772 0.04694,0.3375238 h 0.974499 v -0.024322 c 0,-1.1493288 1.34939,-2.0748164 3.026907,-2.0748164 h 7.801544 c 1.677512,0 3.028499,0.9254876 3.028499,2.0748164 v 0.024322 h 0.973702 c 0.0208,-0.1115466 0.04774,-0.221724 0.04774,-0.3375238 v -0.2326206 c 0,-1.3879632 -1.549889,-2.5055892 -3.474779,-2.5055892 z"
       id="path1945"
       inkscape:connector-curvature="0"
       inkscape:export-xdpi="96"
       inkscape:export-ydpi="96" />
    <rect
       style="fill:#ff0000;fill-opacity:1;fill-rule:nonzero;stroke:#000000;stroke-width:0.86004937;stroke-miterlimit:4;stroke-dasharray:none;stroke-opacity:0.99215686"
       id="rect1615"
       width="33.006611"
       height="33.006615"
       x="-102.21956"
       y="-5.9259162"
       inkscape:export-xdpi="96"
       inkscape:export-ydpi="96"
       ry="8.4476404" />
    <path
       style="fill:#ffffff;stroke:#1a1a1a;stroke-width:1.11341381;stroke-linecap:butt;stroke-linejoin:miter;stroke-miterlimit:4;stroke-dasharray:none;stroke-opacity:1"
       d="m -99.894755,5.5340484 v 9.4549876 h 9.443106 v 9.45499 h 9.44313 v -9.45499 h 9.447529 V 5.5340484 h -9.447529 v -9.459431 h -9.44313 v 9.459431 z"
       id="path1617"
       inkscape:connector-curvature="0"
       sodipodi:nodetypes="ccccccccccccc"
       inkscape:export-xdpi="96"
       inkscape:export-ydpi="96" />
    <rect
       inkscape:export-ydpi="96"
       inkscape:export-xdpi="96"
       y="0.76099241"
       x="41.992775"
       height="33.006615"
       width="33.006611"
       id="rect1619"
       style="fill:#e6e6e6;fill-opacity:1;fill-rule:nonzero;stroke:#000000;stroke-width:0.86004937;stroke-miterlimit:4;stroke-dasharray:none;stroke-opacity:0.99215686" />
    <path
       inkscape:export-ydpi="96"
       inkscape:export-xdpi="96"
       sodipodi:nodetypes="ccccccccccccc"
       inkscape:connector-curvature="0"
       id="path1621"
       d="m 44.317577,12.220963 v 9.454981 h 9.44311 v 9.45499 h 9.44313 v -9.45499 h 9.44753 v -9.454981 h -9.44753 V 2.7615323 h -9.44313 v 9.4594307 z"
       style="fill:#ff0000;stroke:#1a1a1a;stroke-width:1.11341381;stroke-linecap:butt;stroke-linejoin:miter;stroke-miterlimit:4;stroke-dasharray:none;stroke-opacity:1" />
    <rect
       ry="1.1693188"
       y="64.474907"
       x="-20.956419"
       height="3.998316"
       width="12.598467"
       id="rect1908"
       style="opacity:1;fill:#b3b3b3;fill-opacity:1;fill-rule:nonzero;stroke:#000000;stroke-width:0.51036638;stroke-miterlimit:4;stroke-dasharray:none;stroke-opacity:0.99215686" />
    <path
       style="opacity:1;fill:#4d4d4d;fill-opacity:1;fill-rule:nonzero;stroke:none;stroke-width:0.89282793;stroke-miterlimit:4;stroke-dasharray:none;stroke-opacity:0.99215686"
       d="m -19.137715,65.532066 c -0.520301,0 -0.939183,0.693052 -0.939183,1.553908 v 1.123447 h 2.33031 v -1.123447 c 0,-0.860856 -0.418882,-1.553908 -0.939183,-1.553908 z"
       id="rect2285"
       inkscape:connector-curvature="0" />
    <path
       inkscape:connector-curvature="0"
       id="path1921"
       d="m -15.96985,65.532066 c -0.520301,0 -0.939183,0.693052 -0.939183,1.553908 v 1.123447 h 2.33031 v -1.123447 c 0,-0.860856 -0.418882,-1.553908 -0.939183,-1.553908 z"
       style="opacity:1;fill:#4d4d4d;fill-opacity:1;fill-rule:nonzero;stroke:none;stroke-width:0.89282793;stroke-miterlimit:4;stroke-dasharray:none;stroke-opacity:0.99215686" />
    <path
       style="opacity:1;fill:#4d4d4d;fill-opacity:1;fill-rule:nonzero;stroke:none;stroke-width:0.89282793;stroke-miterlimit:4;stroke-dasharray:none;stroke-opacity:0.99215686"
       d="m -11.74603,65.532066 c -0.520301,0 -0.939183,0.693052 -0.939183,1.553908 v 1.123447 h 2.33031 v -1.123447 c 0,-0.860856 -0.418882,-1.553908 -0.939183,-1.553908 z"
       id="path1923"
       inkscape:connector-curvature="0" />
    <rect
       ry="1.1693188"
       y="84.688385"
       x="-19.144688"
       height="3.998316"
       width="12.598467"
       id="rect1925"
       style="opacity:1;fill:#b3b3b3;fill-opacity:1;fill-rule:nonzero;stroke:#000000;stroke-width:0.51036638;stroke-miterlimit:4;stroke-dasharray:none;stroke-opacity:0.99215686" />
    <path
       style="opacity:1;fill:#4d4d4d;fill-opacity:1;fill-rule:nonzero;stroke:none;stroke-width:1.29342949;stroke-miterlimit:4;stroke-dasharray:none;stroke-opacity:0.99215686"
       d="m -15.829618,86.465728 c -1.250417,0 -2.256302,0.717585 -2.256302,1.608728 v 0.149287 c 0,0.07435 0.01738,0.145204 0.03093,0.21682 h 10.2670699 c 0.013511,-0.07162 0.030922,-0.14247 0.030922,-0.21682 v -0.149287 c 0,-0.891143 -1.0068823,-1.608728 -2.2572969,-1.608728 z"
       id="rect1927"
       inkscape:connector-curvature="0" />
    <rect
       style="opacity:1;fill:#b3b3b3;fill-opacity:1;fill-rule:nonzero;stroke:#000000;stroke-width:0.44327486;stroke-miterlimit:4;stroke-dasharray:none;stroke-opacity:0.99215686"
       id="rect1937"
       width="9.3470116"
       height="4.0654078"
       x="-82.153549"
       y="106.9193"
       ry="1.1889399" />
    <path
       inkscape:connector-curvature="0"
       id="path1939"
       d="m -79.694044,108.72646 c -0.927705,0 -1.673988,0.72963 -1.673988,1.63573 v 0.15179 c 0,0.0755 0.0129,0.14764 0.02295,0.22046 h 7.61731 c 0.01002,-0.0728 0.02294,-0.14487 0.02294,-0.22046 v -0.15179 c 0,-0.9061 -0.747024,-1.63573 -1.674727,-1.63573 z"
       style="opacity:1;fill:#4d4d4d;fill-opacity:1;fill-rule:nonzero;stroke:none;stroke-width:1.12339842;stroke-miterlimit:4;stroke-dasharray:none;stroke-opacity:0.99215686" />
    <path
       inkscape:connector-curvature="0"
       id="path1941"
       d="m 66.443203,30.290889 c -1.250417,0 -2.256302,1.139629 -2.256302,2.554895 v 0.237089 c 0,0.118075 0.01738,0.230605 0.03093,0.344345 h 10.26707 c 0.01351,-0.11375 0.03092,-0.22627 0.03092,-0.344345 v -0.237089 c 0,-1.415266 -1.006882,-2.554895 -2.257297,-2.554895 z"
       style="opacity:1;fill:#b3b3b3;fill-opacity:1;fill-rule:nonzero;stroke:#000000;stroke-width:0.26458332;stroke-miterlimit:4;stroke-dasharray:none;stroke-opacity:0.99215686"
       inkscape:export-xdpi="96"
       inkscape:export-ydpi="96" />
    <path
       inkscape:connector-curvature="0"
       id="path1943"
       d="m 66.816944,31.286452 c -1.08972,0 -1.966334,0.717585 -1.966334,1.608728 v 0.149287 c 0,0.07435 0.01515,0.145201 0.02696,0.216821 h 8.947601 c 0.01178,-0.0716 0.02695,-0.142471 0.02695,-0.216821 V 32.89518 c 0,-0.891143 -0.877484,-1.608728 -1.967201,-1.608728 z"
       style="opacity:1;fill:#666666;fill-opacity:1;fill-rule:nonzero;stroke:none;stroke-width:1.20746005;stroke-miterlimit:4;stroke-dasharray:none;stroke-opacity:0.99215686"
       inkscape:export-xdpi="96"
       inkscape:export-ydpi="96" />
    <path
       style="opacity:1;fill:#b3b3b3;fill-opacity:1;fill-rule:nonzero;stroke:#000000;stroke-width:0.26458332;stroke-miterlimit:4;stroke-dasharray:none;stroke-opacity:0.99215686"
       d="m 44.613695,30.290889 c -1.250417,0 -2.256302,1.139629 -2.256302,2.554895 v 0.237089 c 0,0.118075 0.01738,0.230605 0.03093,0.344345 h 10.26707 c 0.01351,-0.11375 0.03092,-0.22627 0.03092,-0.344345 v -0.237089 c 0,-1.415266 -1.006882,-2.554895 -2.257297,-2.554895 z"
       id="path1949"
       inkscape:connector-curvature="0"
       inkscape:export-xdpi="96"
       inkscape:export-ydpi="96" />
    <path
       style="opacity:1;fill:#666666;fill-opacity:1;fill-rule:nonzero;stroke:none;stroke-width:1.20746005;stroke-miterlimit:4;stroke-dasharray:none;stroke-opacity:0.99215686"
       d="m 44.987436,31.286452 c -1.08972,0 -1.966334,0.717585 -1.966334,1.608728 v 0.149287 c 0,0.07435 0.01515,0.145201 0.02696,0.216821 h 8.947601 c 0.01178,-0.0716 0.02695,-0.142471 0.02695,-0.216821 V 32.89518 c 0,-0.891143 -0.877484,-1.608728 -1.967201,-1.608728 z"
       id="path1951"
       inkscape:connector-curvature="0"
       inkscape:export-xdpi="96"
       inkscape:export-ydpi="96" />
    <rect
       style="fill:#e6e6e6;fill-opacity:1;fill-rule:nonzero;stroke:#000000;stroke-width:0.72943014;stroke-miterlimit:4;stroke-dasharray:none;stroke-opacity:0.99215686"
       id="rect1959"
       width="23.937815"
       height="32.736938"
       x="4.8425288"
       y="0.59562552"
       inkscape:export-xdpi="96"
       inkscape:export-ydpi="96" />
    <path
       style="fill:#ff0000;stroke:#1a1a1a;stroke-width:0.94431514;stroke-linecap:butt;stroke-linejoin:miter;stroke-miterlimit:4;stroke-dasharray:none;stroke-opacity:1"
       d="m 6.5285653,11.961963 v 9.377731 l 5.9983967,-6.1e-5 v 8.081188 l 8.402637,1.03e-4 v -8.08123 l 6.147836,-6.6e-5 v -9.377816 l -6.147836,1.51e-4 5.6e-5,-8.1916199 -8.402693,-6.14e-5 v 8.1916203 z"
       id="path1961"
       inkscape:connector-curvature="0"
       sodipodi:nodetypes="ccccccccccccc"
       inkscape:export-xdpi="96"
       inkscape:export-ydpi="96" />
    <path
       style="opacity:1;fill:#b3b3b3;fill-opacity:1;fill-rule:nonzero;stroke:#000000;stroke-width:0.19872206;stroke-miterlimit:4;stroke-dasharray:none;stroke-opacity:0.99215686"
       d="m 22.567805,30.576603 c -0.909968,0 -1.641989,0.883408 -1.641989,1.980481 v 0.183785 c 0,0.09153 0.01264,0.178758 0.02248,0.266925 h 7.471644 c 0.01003,-0.08817 0.02248,-0.175397 0.02248,-0.266925 v -0.183785 c 0,-1.097073 -0.732733,-1.980481 -1.642692,-1.980481 z"
       id="path1963"
       inkscape:connector-curvature="0"
       inkscape:export-xdpi="96"
       inkscape:export-ydpi="96" />
    <path
       style="opacity:1;fill:#4d4d4d;fill-opacity:1;fill-rule:nonzero;stroke:none;stroke-width:0.90689361;stroke-miterlimit:4;stroke-dasharray:none;stroke-opacity:0.99215686"
       d="m 22.839784,31.348335 c -0.793029,0 -1.430968,0.556251 -1.430968,1.247039 v 0.115723 c 0,0.05762 0.01104,0.112562 0.01967,0.168076 h 6.511424 c 0.009,-0.05549 0.01957,-0.110442 0.01957,-0.168076 v -0.115723 c 0,-0.690788 -0.638571,-1.247039 -1.43159,-1.247039 z"
       id="path1965"
       inkscape:connector-curvature="0"
       inkscape:export-xdpi="96"
       inkscape:export-ydpi="96" />
    <path
       inkscape:connector-curvature="0"
       id="path1981"
       d="m 6.9291547,30.576603 c -0.909968,0 -1.641989,0.883408 -1.641989,1.980481 v 0.183785 c 0,0.09153 0.01264,0.178758 0.02248,0.266925 H 12.78129 c 0.01003,-0.08817 0.02248,-0.175397 0.02248,-0.266925 v -0.183785 c 0,-1.097073 -0.732733,-1.980481 -1.642692,-1.980481 z"
       style="opacity:1;fill:#b3b3b3;fill-opacity:1;fill-rule:nonzero;stroke:#000000;stroke-width:0.19872206;stroke-miterlimit:4;stroke-dasharray:none;stroke-opacity:0.99215686"
       inkscape:export-xdpi="96"
       inkscape:export-ydpi="96" />
    <path
       inkscape:connector-curvature="0"
       id="path1983"
       d="m 7.2011337,31.348335 c -0.793029,0 -1.430968,0.556251 -1.430968,1.247039 v 0.115723 c 0,0.05762 0.01104,0.112562 0.01967,0.168076 H 12.30126 c 0.009,-0.05549 0.01957,-0.110442 0.01957,-0.168076 v -0.115723 c 0,-0.690788 -0.638571,-1.247039 -1.43159,-1.247039 z"
       style="opacity:1;fill:#4d4d4d;fill-opacity:1;fill-rule:nonzero;stroke:none;stroke-width:0.90689361;stroke-miterlimit:4;stroke-dasharray:none;stroke-opacity:0.99215686"
       inkscape:export-xdpi="96"
       inkscape:export-ydpi="96" />
    <rect
       inkscape:export-ydpi="96"
       inkscape:export-xdpi="96"
       style="opacity:1;fill:#2d5016;fill-opacity:1;fill-rule:nonzero;stroke:#000000;stroke-width:0.79516482;stroke-miterlimit:4;stroke-dasharray:none;stroke-opacity:0.99215686"
       id="rect1955-7"
       width="33.071503"
       height="33.071503"
       x="-41.341885"
       y="2.0656002"
       rx="5.3286438"
       ry="6.0799022" />
    <rect
       ry="4.9248543"
       rx="4.8016977"
       y="5.2070189"
       x="-39.706661"
       height="26.788645"
       width="29.801081"
       id="rect1957-9"
       style="opacity:1;fill:#112b00;fill-opacity:1;fill-rule:nonzero;stroke:#000000;stroke-width:0.67935175;stroke-miterlimit:4;stroke-dasharray:none;stroke-opacity:0.99215686"
       inkscape:export-xdpi="96"
       inkscape:export-ydpi="96" />
    <rect
       style="fill:#2d5016;fill-opacity:1;fill-rule:nonzero;stroke:#000000;stroke-width:0.7294302;stroke-miterlimit:4;stroke-dasharray:none;stroke-opacity:0.99215686"
       id="rect1959-2"
       width="23.937815"
       height="32.736938"
       x="-36.896938"
       y="2.2636497"
       inkscape:export-xdpi="96"
       inkscape:export-ydpi="96" />
    <path
       style="fill:#ff0000;stroke:#1a1a1a;stroke-width:0.94431514;stroke-linecap:butt;stroke-linejoin:miter;stroke-miterlimit:4;stroke-dasharray:none;stroke-opacity:1"
       d="m -35.210903,13.629987 v 9.377731 l 5.998396,-6.1e-5 v 8.081188 l 8.402637,1.03e-4 v -8.08123 l 6.147837,-6.6e-5 v -9.377816 l -6.147837,1.51e-4 5.6e-5,-8.1916196 -8.402693,-6.14e-5 v 8.19162 z"
       id="path1961-6"
       inkscape:connector-curvature="0"
       sodipodi:nodetypes="ccccccccccccc"
       inkscape:export-xdpi="96"
       inkscape:export-ydpi="96" />
    <path
       style="opacity:1;fill:#17280b;fill-opacity:1;fill-rule:nonzero;stroke:#000000;stroke-width:0.19872206;stroke-miterlimit:4;stroke-dasharray:none;stroke-opacity:0.99215686"
       d="m -19.171664,32.244627 c -0.909968,0 -1.641989,0.883409 -1.641989,1.98048 v 0.183785 c 0,0.09153 0.01264,0.178761 0.02248,0.266928 h 7.471645 c 0.01003,-0.08817 0.02249,-0.175398 0.02249,-0.266928 v -0.183785 c 0,-1.097071 -0.732732,-1.98048 -1.642692,-1.98048 z"
       id="path1963-8"
       inkscape:connector-curvature="0"
       inkscape:export-xdpi="96"
       inkscape:export-ydpi="96" />
    <path
       style="opacity:1;fill:#4d4d4d;fill-opacity:1;fill-rule:nonzero;stroke:none;stroke-width:0.90689361;stroke-miterlimit:4;stroke-dasharray:none;stroke-opacity:0.99215686"
       d="m -18.899685,33.016358 c -0.793029,0 -1.430968,0.556253 -1.430968,1.24704 v 0.115723 c 0,0.05762 0.01104,0.112562 0.01967,0.168077 h 6.511424 c 0.009,-0.05549 0.01958,-0.110442 0.01958,-0.168077 v -0.115723 c 0,-0.690787 -0.638571,-1.24704 -1.431588,-1.24704 z"
       id="path1965-8"
       inkscape:connector-curvature="0"
       inkscape:export-xdpi="96"
       inkscape:export-ydpi="96" />
    <path
       inkscape:connector-curvature="0"
       id="path1981-4"
       d="m -34.810314,32.244627 c -0.909968,0 -1.641989,0.883409 -1.641989,1.98048 v 0.183785 c 0,0.09153 0.01264,0.178761 0.02248,0.266928 h 7.471645 c 0.01003,-0.08817 0.02248,-0.175398 0.02248,-0.266928 v -0.183785 c 0,-1.097071 -0.732733,-1.98048 -1.642692,-1.98048 z"
       style="opacity:1;fill:#002b00;fill-opacity:1;fill-rule:nonzero;stroke:#000000;stroke-width:0.19872206;stroke-miterlimit:4;stroke-dasharray:none;stroke-opacity:0.99215686"
       inkscape:export-xdpi="96"
       inkscape:export-ydpi="96" />
    <path
       inkscape:connector-curvature="0"
       id="path1983-8"
       d="m -34.538335,33.016358 c -0.793029,0 -1.430968,0.556253 -1.430968,1.24704 v 0.115723 c 0,0.05762 0.01104,0.112562 0.01967,0.168077 h 6.511424 c 0.009,-0.05549 0.01957,-0.110442 0.01957,-0.168077 v -0.115723 c 0,-0.690787 -0.638571,-1.24704 -1.43159,-1.24704 z"
       style="opacity:1;fill:#4d4d4d;fill-opacity:1;fill-rule:nonzero;stroke:none;stroke-width:0.90689361;stroke-miterlimit:4;stroke-dasharray:none;stroke-opacity:0.99215686"
       inkscape:export-xdpi="96"
       inkscape:export-ydpi="96" />
    <rect
       inkscape:export-ydpi="96"
       inkscape:export-xdpi="96"
       y="-51.967468"
       x="4.8425288"
       height="32.736938"
       width="23.937815"
       id="rect2028"
       style="fill:#e6e6e6;fill-opacity:1;fill-rule:nonzero;stroke:#000000;stroke-width:0.72943014;stroke-miterlimit:4;stroke-dasharray:none;stroke-opacity:0.99215686" />
    <rect
       style="opacity:1;fill:#ff0000;fill-opacity:1;fill-rule:nonzero;stroke:none;stroke-width:0.69668478;stroke-miterlimit:4;stroke-dasharray:none;stroke-opacity:0.99215686"
       id="rect2051"
       width="23.176218"
       height="25.370378"
       x="5.2442951"
       y="-48.368599"
       ry="0"
       inkscape:export-xdpi="96"
       inkscape:export-ydpi="96" />
    <path
       inkscape:export-ydpi="96"
       inkscape:export-xdpi="96"
       sodipodi:nodetypes="ccccccccccccc"
       inkscape:connector-curvature="0"
       id="path2030"
       d="m 92.162341,-41.923031 v 9.366561 l 6.400468,-6.1e-5 v 8.071562 l 8.965861,1.03e-4 v -8.071604 l 6.55993,-6.6e-5 v -9.366645 l -6.55993,1.5e-4 6e-5,-8.181862 -8.965921,-6.2e-5 v 8.181864 z"
       style="fill:#ffffff;stroke:#1a1a1a;stroke-width:0.97486931;stroke-linecap:butt;stroke-linejoin:miter;stroke-miterlimit:4;stroke-dasharray:none;stroke-opacity:1" />
    <path
       inkscape:export-ydpi="96"
       inkscape:export-xdpi="96"
       inkscape:connector-curvature="0"
       id="path2032"
       d="m 22.567805,-21.986491 c -0.909968,0 -1.641989,0.883408 -1.641989,1.980481 v 0.183785 c 0,0.09153 0.01264,0.178758 0.02248,0.266925 h 7.471644 c 0.01003,-0.08817 0.02248,-0.175397 0.02248,-0.266925 v -0.183785 c 0,-1.097073 -0.732733,-1.980481 -1.642692,-1.980481 z"
       style="opacity:1;fill:#b3b3b3;fill-opacity:1;fill-rule:nonzero;stroke:#000000;stroke-width:0.19872206;stroke-miterlimit:4;stroke-dasharray:none;stroke-opacity:0.99215686" />
    <path
       inkscape:export-ydpi="96"
       inkscape:export-xdpi="96"
       inkscape:connector-curvature="0"
       id="path2034"
       d="m 22.839784,-21.214759 c -0.793029,0 -1.430968,0.556251 -1.430968,1.247039 v 0.115723 c 0,0.05762 0.01104,0.112562 0.01967,0.168076 h 6.511424 c 0.009,-0.05549 0.01957,-0.110442 0.01957,-0.168076 v -0.115723 c 0,-0.690788 -0.638571,-1.247039 -1.43159,-1.247039 z"
       style="opacity:1;fill:#4d4d4d;fill-opacity:1;fill-rule:nonzero;stroke:none;stroke-width:0.90689361;stroke-miterlimit:4;stroke-dasharray:none;stroke-opacity:0.99215686" />
    <path
       inkscape:export-ydpi="96"
       inkscape:export-xdpi="96"
       style="opacity:1;fill:#b3b3b3;fill-opacity:1;fill-rule:nonzero;stroke:#000000;stroke-width:0.19872206;stroke-miterlimit:4;stroke-dasharray:none;stroke-opacity:0.99215686"
       d="m 6.9291547,-21.986491 c -0.909968,0 -1.641989,0.883408 -1.641989,1.980481 v 0.183785 c 0,0.09153 0.01264,0.178758 0.02248,0.266925 H 12.78129 c 0.01003,-0.08817 0.02248,-0.175397 0.02248,-0.266925 v -0.183785 c 0,-1.097073 -0.732733,-1.980481 -1.642692,-1.980481 z"
       id="path2036"
       inkscape:connector-curvature="0" />
    <path
       inkscape:export-ydpi="96"
       inkscape:export-xdpi="96"
       style="opacity:1;fill:#4d4d4d;fill-opacity:1;fill-rule:nonzero;stroke:none;stroke-width:0.90689361;stroke-miterlimit:4;stroke-dasharray:none;stroke-opacity:0.99215686"
       d="m 7.2011337,-21.214759 c -0.793029,0 -1.430968,0.556251 -1.430968,1.247039 v 0.115723 c 0,0.05762 0.01104,0.112562 0.01967,0.168076 H 12.30126 c 0.009,-0.05549 0.01957,-0.110442 0.01957,-0.168076 v -0.115723 c 0,-0.690788 -0.638571,-1.247039 -1.43159,-1.247039 z"
       id="path2038"
       inkscape:connector-curvature="0" />
    <rect
       style="fill:#e6e6e6;fill-opacity:1;fill-rule:nonzero;stroke:#000000;stroke-width:0.72943014;stroke-miterlimit:4;stroke-dasharray:none;stroke-opacity:0.99215686"
       id="rect2083"
       width="23.937815"
       height="32.736938"
       x="52.477833"
       y="-51.967468"
       inkscape:export-xdpi="96"
       inkscape:export-ydpi="96" />
    <path
       style="fill:#ffffff;stroke:#1a1a1a;stroke-width:0.80599755;stroke-linecap:butt;stroke-linejoin:miter;stroke-miterlimit:4;stroke-dasharray:none;stroke-opacity:1"
       d="m 6.5670958,-39.161223 v 6.844438 H 13.40294 v 6.844444 h 6.835859 v -6.844444 h 6.839044 v -6.844438 h -6.839044 v -6.847659 H 13.40294 v 6.847659 z"
       id="path2087"
       inkscape:connector-curvature="0"
       sodipodi:nodetypes="ccccccccccccc"
       inkscape:export-xdpi="96"
       inkscape:export-ydpi="96" />
    <rect
       style="fill:#ff0000;fill-opacity:1;fill-rule:nonzero;stroke:#000000;stroke-width:0.72943014;stroke-miterlimit:4;stroke-dasharray:none;stroke-opacity:0.99215686"
       id="rect2097"
       width="23.937815"
       height="32.736938"
       x="4.8425288"
       y="-93.615227"
       inkscape:export-xdpi="96"
       inkscape:export-ydpi="96" />
    <path
       style="opacity:1;fill:#999999;fill-opacity:1;fill-rule:nonzero;stroke:#000000;stroke-width:0.19872206;stroke-miterlimit:4;stroke-dasharray:none;stroke-opacity:0.99215686"
       d="m 22.567805,-63.634249 c -0.909968,0 -1.641989,0.883408 -1.641989,1.980481 v 0.183785 c 0,0.09153 0.01264,0.178758 0.02248,0.266925 h 7.471644 c 0.01003,-0.08817 0.02248,-0.175397 0.02248,-0.266925 v -0.183785 c 0,-1.097073 -0.732733,-1.980481 -1.642692,-1.980481 z"
       id="path2101"
       inkscape:connector-curvature="0"
       inkscape:export-xdpi="96"
       inkscape:export-ydpi="96" />
    <path
       style="opacity:1;fill:#666666;fill-opacity:1;fill-rule:nonzero;stroke:none;stroke-width:0.90689361;stroke-miterlimit:4;stroke-dasharray:none;stroke-opacity:0.99215686"
       d="m 22.839784,-62.862517 c -0.793029,0 -1.430968,0.556251 -1.430968,1.247039 v 0.115723 c 0,0.05762 0.01104,0.112562 0.01967,0.168076 h 6.511424 c 0.009,-0.05549 0.01957,-0.110442 0.01957,-0.168076 v -0.115723 c 0,-0.690788 -0.638571,-1.247039 -1.43159,-1.247039 z"
       id="path2103"
       inkscape:connector-curvature="0"
       inkscape:export-xdpi="96"
       inkscape:export-ydpi="96" />
    <path
       inkscape:connector-curvature="0"
       id="path2105"
       d="m 6.9291547,-63.634249 c -0.909968,0 -1.641989,0.883408 -1.641989,1.980481 v 0.183785 c 0,0.09153 0.01264,0.178758 0.02248,0.266925 H 12.78129 c 0.01003,-0.08817 0.02248,-0.175397 0.02248,-0.266925 v -0.183785 c 0,-1.097073 -0.732733,-1.980481 -1.642692,-1.980481 z"
       style="opacity:1;fill:#999999;fill-opacity:1;fill-rule:nonzero;stroke:#000000;stroke-width:0.19872206;stroke-miterlimit:4;stroke-dasharray:none;stroke-opacity:0.99215686"
       inkscape:export-xdpi="96"
       inkscape:export-ydpi="96" />
    <path
       inkscape:connector-curvature="0"
       id="path2107"
       d="m 7.2011337,-62.862517 c -0.793029,0 -1.430968,0.556251 -1.430968,1.247039 v 0.115723 c 0,0.05762 0.01104,0.112562 0.01967,0.168076 H 12.30126 c 0.009,-0.05549 0.01957,-0.110442 0.01957,-0.168076 v -0.115723 c 0,-0.690788 -0.638571,-1.247039 -1.43159,-1.247039 z"
       style="opacity:1;fill:#666666;fill-opacity:1;fill-rule:nonzero;stroke:none;stroke-width:0.90689361;stroke-miterlimit:4;stroke-dasharray:none;stroke-opacity:0.99215686"
       inkscape:export-xdpi="96"
       inkscape:export-ydpi="96" />
    <path
       inkscape:export-ydpi="96"
       inkscape:export-xdpi="96"
       sodipodi:nodetypes="ccccccccccccc"
       inkscape:connector-curvature="0"
       id="path2109"
       d="m 6.5670958,-80.808981 v 6.844438 H 13.40294 v 6.844444 h 6.835859 v -6.844444 h 6.839044 v -6.844438 H 20.238799 V -87.65664 H 13.40294 v 6.847659 z"
       style="fill:#ffffff;stroke:#1a1a1a;stroke-width:0.80599755;stroke-linecap:butt;stroke-linejoin:miter;stroke-miterlimit:4;stroke-dasharray:none;stroke-opacity:1" />
    <rect
       inkscape:export-ydpi="96"
       inkscape:export-xdpi="96"
       y="-93.615227"
       x="155.8364"
       height="32.736938"
       width="23.937815"
       id="rect1485"
       style="fill:#ff0000;fill-opacity:1;fill-rule:nonzero;stroke:#000000;stroke-width:0.72943014;stroke-miterlimit:4;stroke-dasharray:none;stroke-opacity:0.99215686" />
    <path
       inkscape:export-ydpi="96"
       inkscape:export-xdpi="96"
       inkscape:connector-curvature="0"
       id="path1487"
       d="m 173.56167,-63.634249 c -0.90997,0 -1.64199,0.883408 -1.64199,1.980481 v 0.183785 c 0,0.09153 0.0126,0.178758 0.0225,0.266925 h 7.47164 c 0.01,-0.08817 0.0225,-0.175397 0.0225,-0.266925 v -0.183785 c 0,-1.097073 -0.73273,-1.980481 -1.64269,-1.980481 z"
       style="opacity:1;fill:#999999;fill-opacity:1;fill-rule:nonzero;stroke:#000000;stroke-width:0.19872206;stroke-miterlimit:4;stroke-dasharray:none;stroke-opacity:0.99215686" />
    <path
       inkscape:export-ydpi="96"
       inkscape:export-xdpi="96"
       inkscape:connector-curvature="0"
       id="path1489"
       d="m 173.83365,-62.862517 c -0.79303,0 -1.43097,0.556251 -1.43097,1.247039 v 0.115723 c 0,0.05762 0.011,0.112562 0.0197,0.168076 h 6.51142 c 0.009,-0.05549 0.0196,-0.110442 0.0196,-0.168076 v -0.115723 c 0,-0.690788 -0.63857,-1.247039 -1.43159,-1.247039 z"
       style="opacity:1;fill:#666666;fill-opacity:1;fill-rule:nonzero;stroke:none;stroke-width:0.90689361;stroke-miterlimit:4;stroke-dasharray:none;stroke-opacity:0.99215686" />
    <path
       inkscape:export-ydpi="96"
       inkscape:export-xdpi="96"
       style="opacity:1;fill:#999999;fill-opacity:1;fill-rule:nonzero;stroke:#000000;stroke-width:0.19872206;stroke-miterlimit:4;stroke-dasharray:none;stroke-opacity:0.99215686"
       d="m 157.92302,-63.634249 c -0.90997,0 -1.64199,0.883408 -1.64199,1.980481 v 0.183785 c 0,0.09153 0.0126,0.178758 0.0225,0.266925 h 7.47164 c 0.01,-0.08817 0.0225,-0.175397 0.0225,-0.266925 v -0.183785 c 0,-1.097073 -0.73273,-1.980481 -1.64269,-1.980481 z"
       id="path1491"
       inkscape:connector-curvature="0" />
    <path
       inkscape:export-ydpi="96"
       inkscape:export-xdpi="96"
       style="opacity:1;fill:#666666;fill-opacity:1;fill-rule:nonzero;stroke:none;stroke-width:0.90689361;stroke-miterlimit:4;stroke-dasharray:none;stroke-opacity:0.99215686"
       d="m 158.195,-62.862517 c -0.79303,0 -1.43097,0.556251 -1.43097,1.247039 v 0.115723 c 0,0.05762 0.011,0.112562 0.0197,0.168076 h 6.51142 c 0.009,-0.05549 0.0196,-0.110442 0.0196,-0.168076 v -0.115723 c 0,-0.690788 -0.63857,-1.247039 -1.43159,-1.247039 z"
       id="path1493"
       inkscape:connector-curvature="0" />
    <path
       style="fill:#ffffff;stroke:#1a1a1a;stroke-width:0.80599755;stroke-linecap:butt;stroke-linejoin:miter;stroke-miterlimit:4;stroke-dasharray:none;stroke-opacity:1"
       d="m 66.300933,-89.769056 v 6.844438 h 6.83584 v 6.844444 h 6.83586 v -6.844444 h 6.83905 v -6.844438 h -6.83905 v -6.847659 h -6.83586 v 6.847659 z"
       id="path1495"
       inkscape:connector-curvature="0"
       sodipodi:nodetypes="ccccccccccccc"
       inkscape:export-xdpi="96"
       inkscape:export-ydpi="96" />
  </g>
  <g
     inkscape:groupmode="layer"
     id="layer3"
     inkscape:label="Red Stripe">
    <rect
       style="opacity:1;fill:#ff0000;fill-opacity:1;fill-rule:nonzero;stroke:none;stroke-width:1.02254426;stroke-miterlimit:4;stroke-dasharray:none;stroke-opacity:0.99215686"
       id="rect2249"
       width="10.702313"
       height="32.355827"
       x="-46.592117"
       y="-58.880112" />
  </g>
  <g
     inkscape:groupmode="layer"
     id="layer2"
     inkscape:label="Red Cross">
    <rect
       style="opacity:1;fill:#ff0000;fill-opacity:1;fill-rule:nonzero;stroke:none;stroke-width:0.84319282;stroke-miterlimit:4;stroke-dasharray:none;stroke-opacity:0.99215686"
       id="rect2232"
       width="24.556807"
       height="24.556807"
       x="-53.501873"
       y="-54.947865"
       rx="0"
       ry="0"
       inkscape:export-xdpi="96"
       inkscape:export-ydpi="96" />
    <path
       style="fill:#ffffff;stroke:#ffaaaa;stroke-width:0.76784545;stroke-linecap:butt;stroke-linejoin:miter;stroke-miterlimit:4;stroke-dasharray:none;stroke-opacity:1"
       d="m -50.969474,-45.896746 v 6.516364 h 6.516369 v 6.516365 h 6.516367 v -6.516365 h 6.519418 v -6.516364 h -6.519418 v -6.519424 h -6.516367 v 6.519424 z"
       id="path1437-4"
       inkscape:connector-curvature="0"
       sodipodi:nodetypes="ccccccccccccc"
       inkscape:export-xdpi="96"
       inkscape:export-ydpi="96" />
  </g>
</svg>
